<?xml version="1.0" standalone="no"?>
<!DOCTYPE svg PUBLIC "-//W3C//DTD SVG 20010904//EN"
 "http://www.w3.org/TR/2001/REC-SVG-20010904/DTD/svg10.dtd">
<svg version="1.0" xmlns="http://www.w3.org/2000/svg"
 width="850.000000pt" height="850.000000pt" viewBox="0 0 850.000000 850.000000"
 preserveAspectRatio="xMidYMid meet">
<metadata>
Created by potrace 1.11, written by Peter Selinger 2001-2013
</metadata>
<g transform="translate(0.000000,850.000000) scale(0.100000,-0.100000)"
fill="#000000" stroke="none">
<path d="M3257 8375 c-60 -60 -278 -283 -485 -493 -207 -211 -451 -459 -540
-550 -90 -92 -245 -249 -343 -349 l-179 -182 827 -1651 828 -1651 3 1245 c1
685 1 1807 0 2493 l-3 1248 -108 -110z"/>
<path d="M6303 8015 c-257 -256 -628 -624 -823 -818 l-355 -352 0 -860 -1
-860 76 -155 c43 -85 108 -216 145 -290 38 -74 69 -137 70 -140 0 -3 14 -30
30 -60 35 -66 55 -109 52 -114 -1 -1 3 -9 10 -17 15 -19 163 -315 163 -328 0
-5 3 -11 8 -13 6 -3 226 -435 227 -448 0 -3 7 -16 15 -30 41 -75 148 -290 143
-290 -3 0 0 -7 7 -15 19 -22 60 -106 60 -121 0 -7 3 -14 8 -16 10 -4 243 -470
242 -485 0 -7 3 -13 8 -13 4 0 93 -173 197 -385 105 -211 192 -384 195 -384 3
-1 5 1497 5 3329 0 1831 -3 3330 -7 3330 -3 0 -217 -209 -475 -465z"/>
<path d="M3418 8373 c-2 -4 -3 -1144 -3 -2533 l2 -2525 85 -165 c47 -91 152
-295 233 -455 81 -159 152 -296 157 -302 6 -7 7 -13 3 -13 -4 0 -3 -6 3 -12
10 -13 118 -223 333 -648 68 -135 126 -247 129 -250 7 -7 137 -272 140 -285 1
-5 6 -15 11 -21 5 -7 37 -65 70 -130 223 -435 336 -657 347 -681 7 -16 17 -35
22 -43 5 -8 24 -46 43 -85 19 -38 43 -85 54 -103 l21 -34 1 2509 1 2508 -342
685 c-189 377 -345 687 -348 690 -10 10 -190 376 -190 387 0 6 -3 13 -7 15 -5
2 -102 190 -217 418 -114 228 -213 421 -218 428 -6 6 -7 12 -2 12 5 0 5 4 -1
8 -5 4 -30 50 -55 102 -25 52 -47 97 -50 100 -3 3 -53 101 -112 218 -58 118
-108 210 -110 205z"/>
<path d="M1710 3342 c0 -1833 3 -3332 6 -3332 3 0 218 211 477 469 260 259
631 627 825 819 l353 349 -2 859 -1 859 -825 1650 c-454 907 -827 1652 -829
1654 -2 2 -4 -1495 -4 -3327z"/>
<path d="M5131 2502 c1 -1371 4 -2492 6 -2492 3 0 66 62 140 138 74 75 313
319 531 541 219 222 477 485 575 585 98 99 230 233 293 297 l114 116 -190 381
c-105 210 -191 385 -191 389 -1 5 -5 13 -10 19 -5 7 -291 573 -634 1260 -344
686 -627 1250 -630 1252 -3 3 -4 -1116 -4 -2486z"/>
</g>
</svg>
